<svg xmlns="http://www.w3.org/2000/svg" id="Layer_1" data-name="Layer 1" viewBox="0 0 23 48.29"><path id="Path_376" fill="currentColor" d="M20.5,10.83h-2.41l-6.59-.02h0s-3.63,2.67-3.63,2.67l-1.73,1.26,1.05-3.93.67-2.51V0L0,2.21v35.64c-.05,2.12.48,4.22,1.54,6.06.97,1.53,2.41,2.71,4.11,3.34,1.85.7,3.82,1.05,5.81,1.03,1.86.02,3.71-.26,5.47-.85,1.52-.5,2.93-1.28,4.15-2.31l-1.76-5.73c-.81.72-1.72,1.3-2.72,1.73-1.1.44-2.27.65-3.45.62-1.4.07-2.77-.37-3.86-1.25-1.04-1.05-1.56-2.5-1.43-3.97v-8.45c-.09-2.15.41-4.29,1.43-6.18.86-1.52,2.12-2.78,3.64-3.64,1.37-.78,2.91-1.2,4.48-1.22.9-.02,1.8.05,2.68.19.61.11,1.21.27,1.8.48l1.1-6.91c-.57.02-1.43.02-2.18.02h-.32Z" data-name="Path 376"/></svg>