<svg xmlns="http://www.w3.org/2000/svg" xmlns:xlink="http://www.w3.org/1999/xlink" width="175.976" height="48.285" viewBox="0 0 175.976 48.285"><defs><clipPath id="clip-path"><rect id="Rectangle_1480" width="175.976" height="48.285" fill="#111" data-name="Rectangle 1480"/></clipPath></defs><g id="Group_1099" data-name="Group 1099" transform="translate(0 0)"><g id="Group_1097" clip-path="url(#clip-path)" data-name="Group 1097" transform="translate(0 0)"><path id="Path_372" fill="#111" d="M49,6.165a17.693,17.693,0,0,0-9.113-2.2,18.96,18.96,0,0,0-9.334,2.277,16,16,0,0,0-6.43,6.579A21.31,21.31,0,0,0,21.805,23.07a21.31,21.31,0,0,0,2.318,10.252,15.881,15.881,0,0,0,6.5,6.579,19.973,19.973,0,0,0,9.7,2.277,21.274,21.274,0,0,0,6.762-1.029,15.461,15.461,0,0,0,5.329-2.976,14.769,14.769,0,0,0,3.563-4.595l-6.247-2.938a9.893,9.893,0,0,1-3.6,3.893,11.261,11.261,0,0,1-5.954,1.4,10.856,10.856,0,0,1-5.731-1.469A9.631,9.631,0,0,1,30.7,30.127a14.8,14.8,0,0,1-1.2-4.7H56.423q.145-.884.219-2.058t.074-2.5a18.562,18.562,0,0,0-1.982-8.673A14.777,14.777,0,0,0,49,6.165M30.626,16.051a9.325,9.325,0,0,1,3.6-4.371,10.176,10.176,0,0,1,5.512-1.471,8.889,8.889,0,0,1,6.836,2.684,10.25,10.25,0,0,1,2.419,6.5H29.673a14.677,14.677,0,0,1,.953-3.344" data-name="Path 372" transform="translate(33.608 6.106)"/><path id="Path_373" fill="#111" d="M88.782,36.15a2.4,2.4,0,0,1-2.719-2.719V17.042a12.812,12.812,0,0,0-1.947-7.349,11.86,11.86,0,0,0-5.329-4.3A19.808,19.808,0,0,0,71,3.962q-6.469,0-10.546,2.719a13.172,13.172,0,0,0-5.477,7.2l6.615,2.793a8.953,8.953,0,0,1,3.454-5,10.107,10.107,0,0,1,5.66-1.543,7.5,7.5,0,0,1,5.55,2.02,7.721,7.721,0,0,1,2.02,5.7v1.405L65.191,21.82a14.476,14.476,0,0,0-7.606,3.6A9.088,9.088,0,0,0,54.9,32.183a8.988,8.988,0,0,0,5.916,8.892,16.615,16.615,0,0,0,6.211,1.1,17.111,17.111,0,0,0,5.512-.92,13.39,13.39,0,0,0,4.778-2.79,8.9,8.9,0,0,0,1.41-1.687,6.782,6.782,0,0,0,.757,1.832,6.527,6.527,0,0,0,2.94,2.574,10.2,10.2,0,0,0,4.226.844,9.883,9.883,0,0,0,4.262-.808l.44-5.438a9,9,0,0,1-2.572.366M77.5,31.632A6.694,6.694,0,0,1,75.333,34.2a9.345,9.345,0,0,1-3.123,1.433,14.321,14.321,0,0,1-3.565.442,6.743,6.743,0,0,1-4.224-1.215,3.9,3.9,0,0,1-1.581-3.271,3.721,3.721,0,0,1,1.543-3.233,11.925,11.925,0,0,1,4.63-1.69l9.261-1.906v3.083a8.533,8.533,0,0,1-.773,3.784" data-name="Path 373" transform="translate(84.619 6.106)"/><path id="Path_374" fill="#111" d="M65.431,5.614a15.962,15.962,0,0,0-7.019-1.507,16.82,16.82,0,0,0-5.7.956,11.526,11.526,0,0,0-4.63,3.05,13.084,13.084,0,0,0-2.112,3.263l-.351-6.534H38.643V41.589h7.863V22.038a12.865,12.865,0,0,1,1.507-6.689A9.27,9.27,0,0,1,51.8,11.713a10.431,10.431,0,0,1,4.7-1.139,7.916,7.916,0,0,1,5.624,2.094q2.238,2.093,2.241,7.532V41.589h7.863V17.777a14.478,14.478,0,0,0-1.837-7.644,11.627,11.627,0,0,0-4.961-4.518" data-name="Path 374" transform="translate(59.561 6.33)"/><path id="Path_375" fill="#111" d="M29.623,4.272l-7.634-.018.005.013L16.626,8.183l1.057-3.931H11.536V41H19.4V21.523a11.993,11.993,0,0,1,1.433-6.175,9.6,9.6,0,0,1,3.637-3.637A9.221,9.221,0,0,1,28.952,10.5a15.443,15.443,0,0,1,2.684.186,11.374,11.374,0,0,1,1.8.478l1.1-6.907c-.577.02-1.433.02-2.18.02Z" data-name="Path 375" transform="translate(17.781 6.553)"/><path id="Path_376" fill="#111" d="M20.5,10.826H18.088l-6.59-.015,0,.01L7.864,13.477l-1.728,1.26,1.055-3.931L7.864,8.3V0L0,2.206V37.85a11.588,11.588,0,0,0,1.545,6.064,8.278,8.278,0,0,0,4.114,3.342,15.879,15.879,0,0,0,5.807,1.032,16.763,16.763,0,0,0,5.474-.846,12.368,12.368,0,0,0,4.153-2.315l-1.764-5.733a9.97,9.97,0,0,1-2.719,1.728,8.784,8.784,0,0,1-3.454.625A5.663,5.663,0,0,1,9.3,40.5a5,5,0,0,1-1.433-3.97v-8.45A11.993,11.993,0,0,1,9.3,21.9a9.6,9.6,0,0,1,3.637-3.637,9.207,9.207,0,0,1,4.483-1.215,15.464,15.464,0,0,1,2.684.186,11.374,11.374,0,0,1,1.8.478L23,10.806c-.574.02-1.431.02-2.178.02Z" data-name="Path 376" transform="translate(-0.002 0)"/></g></g></svg>